<svg width="130" height="28" viewBox="0 0 130 28" fill="none" xmlns="http://www.w3.org/2000/svg">
<path d="M25.1171 16.9158C25.6621 14.1546 27.6993 12.4469 30.6058 12.4469C33.1854 12.4469 35.2564 13.9729 35.8014 16.9158H25.1171ZM30.6422 8.88379C27.842 8.88379 25.5167 9.79469 23.7364 11.6476C21.9562 13.4642 21.0479 15.7169 21.0479 18.4418C21.0479 21.203 21.9562 23.4946 23.7728 25.3112C25.5894 27.0915 27.9899 27.9998 30.9328 27.9998C34.4571 27.9998 37.1093 26.6918 38.8896 24.0395L35.656 22.1477C34.6024 23.6373 33.0401 24.4029 30.9666 24.4029C27.9536 24.4029 25.7347 22.8743 25.1534 20.1131H39.6162C39.7252 19.4227 39.7616 18.8778 39.7616 18.4807C39.7616 15.8259 38.8896 13.5369 37.182 11.684C35.4744 9.83103 33.2944 8.88379 30.6422 8.88379Z" fill="#1A1A1A"/>
<path d="M10.558 24.1459C8.95677 24.1459 7.61247 23.601 6.52251 22.511C5.46887 21.4236 4.92389 20.0767 4.92389 18.4418C4.92389 16.8068 5.46887 15.4625 6.52251 14.3726C7.61247 13.2826 8.95677 12.7376 10.558 12.7376C12.7379 12.7376 14.4819 13.7912 15.3175 15.5352L18.6964 13.5732C17.2431 10.703 14.1185 8.88379 10.5943 8.88379C7.8668 8.88379 5.57786 9.79469 3.72492 11.6476C1.9083 13.4642 1 15.7169 1 18.4418C1 21.1304 1.9083 23.3856 3.72492 25.2385C5.57786 27.0915 7.8668 27.9998 10.5943 27.9998C14.1185 27.9998 17.2068 26.1831 18.7691 23.2766L15.3902 21.3484C14.5182 23.056 12.7016 24.1459 10.558 24.1459Z" fill="#1A1A1A"/>
<path d="M43.2153 27.5278H47.1392V1H43.2153V27.5278Z" fill="#1A1A1A"/>
<path d="M123.032 18.224L129.502 9.35889H124.924L120.743 15.0994L116.565 9.35889H112.021L118.491 18.1876L111.66 27.5276H116.238L120.78 21.3122L125.287 27.5276H129.829L123.032 18.224Z" fill="#1A1A1A"/>
<path d="M103.447 22.62C102.357 23.7126 100.976 24.2575 99.3411 24.2575C97.7062 24.2575 96.3256 23.7126 95.2356 22.62C94.1456 21.4937 93.598 20.1131 93.598 18.4418C93.598 16.7705 94.1456 15.3899 95.2356 14.2999C96.3256 13.1736 97.7062 12.6286 99.3411 12.6286C100.976 12.6286 102.357 13.1736 103.447 14.2999C104.537 15.3899 105.082 16.7705 105.082 18.4418C105.082 20.1131 104.537 21.4937 103.447 22.62ZM105.082 11.9383C103.592 9.90369 101.485 8.88379 98.7235 8.88379C96.214 8.88379 94.1067 9.79469 92.3264 11.6476C91.7217 12.2757 91.2235 12.953 90.8264 13.6771C90.0556 15.081 89.6768 16.6667 89.6768 18.4418C89.6768 21.0966 90.5461 23.3856 92.3264 25.2385C94.1067 27.0915 96.214 27.9998 98.7235 27.9998C101.485 27.9998 103.592 26.9825 105.082 24.9115V27.5274H109.006V9.3587H105.082V11.9383Z" fill="#1A1A1A"/>
<path d="M79.9865 8.88379C77.4796 8.88379 75.6266 9.83102 74.4277 11.7566C73.3014 9.83102 71.5938 8.88379 69.2685 8.88379C66.977 8.88379 65.2356 9.75836 64.073 11.5386V9.3587H60.1465V27.5274H64.073V17.3518C64.073 14.1909 65.7443 12.5559 68.1059 12.5559C70.2858 12.5559 71.5211 14.0092 71.5211 16.5162V27.5274H75.445V17.3518C75.445 14.1546 76.9709 12.5559 79.4052 12.5559C81.5877 12.5559 82.932 14.0092 82.932 16.5162V27.5274H86.8559V16.2618C86.8559 11.7566 84.0946 8.88379 79.9865 8.88379Z" fill="#1A1A1A"/>
<path d="M51.8627 2.38065C50.8817 3.36162 50.8817 4.88758 51.8627 5.90489C52.88 6.88586 54.4059 6.88586 55.3869 5.90489C56.4042 4.88758 56.4042 3.36162 55.4233 2.38065C54.4423 1.36335 52.8437 1.36335 51.8627 2.38065Z" fill="#1A1A1A"/>
<path d="M51.6807 27.5276H55.6046V9.35889H51.6807V27.5276Z" fill="#1A1A1A"/>
</svg>
