<?xml version="1.0" encoding="utf-8"?>
<!-- Generator: Adobe Illustrator 27.6.1, SVG Export Plug-In . SVG Version: 6.00 Build 0)  -->
<svg version="1.1" id="레이어_1" xmlns="http://www.w3.org/2000/svg" xmlns:xlink="http://www.w3.org/1999/xlink" x="0px"
	 y="0px" viewBox="0 0 979 742" style="enable-background:new 0 0 979 742;" xml:space="preserve">
<style type="text/css">
	.st0{fill:#040000;}
</style>
<g>
	<path class="st0" d="M438.76,170.94c15.77-3.91,49.47-1.87,55.31-1.52l28.23-50.05c-15.54-3.5-31.93-5.51-52.61-5.51
		c-81.09,0-140.47,32.39-140.47,108.92v54.93h-53.9v28.89h53.9v332.05h69.31V306.6H504.4V277.7H398.54v-51.48
		C398.54,190.43,412.51,177.46,438.76,170.94z"/>
	<path class="st0" d="M623.78,277.7c-23.17,0-69.29,0-69.29,0v28.89c0,0,16.38,0,31.77,0c15.68,0,23.87,1.08,29.5,10.8
		c5.62,9.72,8,30.67,8,48.99c0,20.76,0,272.25,0,272.25h69.31c0,0,0-255.5,0-276.1c0-19.63,0-39.5-7.27-55.96
		C673.35,278.36,646.95,277.7,623.78,277.7z"/>
	<path class="st0" d="M650.29,242.04c22.75,0,41.23-18.46,41.23-41.3c0-22.74-18.48-41.21-41.23-41.21
		c-22.81,0-41.29,18.47-41.29,41.21C608.99,223.58,627.48,242.04,650.29,242.04z"/>
	<polygon class="st0" points="121.29,277.7 121.29,161.24 90.48,161.24 51.98,207.12 51.98,277.7 0,277.7 0,306.6 51.98,306.6 
		51.98,638.65 121.29,638.65 121.29,306.6 213.72,306.6 213.72,277.7 	"/>
	<polygon class="st0" points="857.71,277.7 857.71,161.24 888.52,161.24 927.01,207.12 927.01,277.7 979,277.7 979,306.6 
		927.01,306.6 927.01,638.65 857.71,638.65 857.71,306.6 765.28,306.6 765.28,277.7 	"/>
</g>
</svg>
